<svg xmlns="http://www.w3.org/2000/svg" viewBox="0 0 1200 384" role="img" aria-label="Lab 5 completed results: seven hardware builds match, 131.6 million MACs per inference, six fixed-width units plus one variable unit, and 11.55 seconds measured variable-MAC time">
<title>Lab 5 completed results at a glance</title>
<style>.q{font:700 12px ui-monospace,SFMono-Regular,Menlo,Consolas,monospace;letter-spacing:1.5px}.big{font:800 44px ui-sans-serif,system-ui,-apple-system,'Segoe UI',Helvetica,Arial,sans-serif}.sub{font:500 14px ui-sans-serif,system-ui,-apple-system,'Segoe UI',Helvetica,Arial,sans-serif;fill:#475569}.lab{font:500 13px ui-sans-serif,system-ui,-apple-system,'Segoe UI',Helvetica,Arial,sans-serif;fill:#0B1220}.val{font:700 13px ui-sans-serif,system-ui,-apple-system,'Segoe UI',Helvetica,Arial,sans-serif;fill:#0B1220}.valbig{font:700 16px ui-sans-serif,system-ui,-apple-system,'Segoe UI',Helvetica,Arial,sans-serif;fill:#0B1220}.note{font:500 12px ui-sans-serif,system-ui,-apple-system,'Segoe UI',Helvetica,Arial,sans-serif;fill:#475569}.tiny{font:600 11px ui-sans-serif,system-ui,-apple-system,'Segoe UI',Helvetica,Arial,sans-serif;fill:#475569}</style>
<rect width="1200" height="384" fill="#ffffff"/>
<g transform="translate(0,0)">
<rect width="285" height="384" fill="#F8FAFC"/>
<rect width="285" height="6" fill="#C2410C"/>
<text x="18" y="38" class="q" fill="#C2410C">DO THE HARDWARE BUILDS MATCH?</text>
<text x="18" y="92" class="big" fill="#0B1220">7 / 7</text>
<text x="18" y="118" class="sub">Tested builds where all 13</text>
<text x="18" y="136" class="sub">inference layers match.</text>
<g transform="translate(18,170)"><rect x="0" y="2" width="20" height="20" fill="#C2410C"/>
<text x="30" y="17" class="lab">staged: 8 / 4 / 2-bit</text>
<rect x="0" y="40" width="20" height="20" fill="#C2410C"/>
<text x="30" y="55" class="lab">pipelined: 8 / 4 / 2-bit</text>
<rect x="0" y="78" width="20" height="20" fill="#C2410C"/>
<text x="30" y="93" class="lab">variable: mixed widths</text>
<text x="0" y="134" class="note">Verified on ZedBoard; variable also</text>
<text x="0" y="152" class="note">passes 8 / 4 / 2-bit self-tests.</text></g></g>
<g transform="translate(305,0)">
<rect width="285" height="384" fill="#F8FAFC"/>
<rect width="285" height="6" fill="#C2410C"/>
<text x="18" y="38" class="q" fill="#C2410C">HOW MUCH ARITHMETIC?</text>
<text x="18" y="92" class="big" fill="#0B1220">131.6 M</text>
<text x="18" y="118" class="sub">Multiply-accumulates for one</text>
<text x="18" y="136" class="sub">image; conv2 alone is 61%.</text>
<g transform="translate(18,170)"><text x="0" y="19" class="lab">conv2</text>
<rect x="52" y="4" width="145" height="22" fill="#E2E8F0"/>
<rect x="52" y="4" width="129.4" height="22" fill="#FDBA74"/>
<text x="205" y="20" class="val">80.3 M</text>
<text x="0" y="57" class="lab">conv4</text>
<rect x="52" y="42" width="145" height="22" fill="#E2E8F0"/>
<rect x="52" y="42" width="34.2" height="22" fill="#C2410C"/>
<text x="205" y="58" class="val">21.2 M</text>
<text x="0" y="95" class="lab">conv3</text>
<rect x="52" y="80" width="145" height="22" fill="#E2E8F0"/>
<rect x="52" y="80" width="20.1" height="22" fill="#C2410C"/>
<text x="205" y="96" class="val">12.5 M</text>
<text x="0" y="133" class="lab">conv1</text>
<rect x="52" y="118" width="145" height="22" fill="#E2E8F0"/>
<rect x="52" y="118" width="13.9" height="22" fill="#C2410C"/>
<text x="205" y="134" class="val">8.6 M</text></g></g>
<g transform="translate(610,0)">
<rect width="285" height="384" fill="#F8FAFC"/>
<rect width="285" height="6" fill="#C2410C"/>
<text x="18" y="38" class="q" fill="#C2410C">WHICH MAC UNITS EXIST?</text>
<text x="18" y="92" class="big" fill="#0B1220">6 + 1</text>
<text x="18" y="118" class="sub">Six fixed-width builds plus one</text>
<text x="18" y="136" class="sub">variable-precision MAC.</text>
<g transform="translate(18,170)"><rect x="0" y="0" width="16" height="16" fill="#C2410C" stroke="#C2410C" stroke-width="2"/>
<text x="24" y="13" class="lab">staged 8-bit</text>
<rect x="128" y="0" width="16" height="16" fill="#C2410C" stroke="#C2410C" stroke-width="2"/>
<text x="152" y="13" class="lab">piped 8-bit</text>
<rect x="0" y="40" width="16" height="16" fill="#C2410C" stroke="#C2410C" stroke-width="2"/>
<text x="24" y="53" class="lab">staged 4-bit</text>
<rect x="128" y="40" width="16" height="16" fill="#C2410C" stroke="#C2410C" stroke-width="2"/>
<text x="152" y="53" class="lab">piped 4-bit</text>
<rect x="0" y="80" width="16" height="16" fill="#C2410C" stroke="#C2410C" stroke-width="2"/>
<text x="24" y="93" class="lab">staged 2-bit</text>
<rect x="128" y="80" width="16" height="16" fill="#C2410C" stroke="#C2410C" stroke-width="2"/>
<text x="152" y="93" class="lab">piped 2-bit</text>
<text x="0" y="140" class="note">All fixed units built, exported and tested.</text></g></g>
<g transform="translate(915,0)">
<rect width="285" height="384" fill="#F8FAFC"/>
<rect width="285" height="6" fill="#C2410C"/>
<text x="18" y="38" class="q" fill="#C2410C">WHAT DID PACKING CHANGE?</text>
<text x="18" y="92" class="big" fill="#0B1220">11.55 s</text>
<text x="18" y="118" class="sub">Measured variable-MAC time;</text>
<text x="18" y="136" class="sub">fixed staged 8-bit is 29.07 s.</text>
<g transform="translate(18,170)"><text x="0" y="19" class="lab">Fixed 8</text>
<rect x="78" y="4" width="119" height="22" fill="#E2E8F0"/>
<rect x="78" y="4" width="119" height="22" fill="#143642"/>
<text x="205" y="20" class="val">29.07 s</text>
<text x="0" y="57" class="lab">Variable</text>
<rect x="78" y="42" width="119" height="22" fill="#E2E8F0"/>
<rect x="78" y="42" width="47.2" height="22" fill="#C2410C"/>
<text x="205" y="58" class="val">11.55 s</text><text x="0" y="98" class="note">2.52x faster; ARM-only is 1.35 s.</text><text x="0" y="116" class="note">MMIO writes remain the bottleneck.</text></g></g>
</svg>
